<?xml version="1.0" standalone="no"?>
<!DOCTYPE svg PUBLIC "-//W3C//DTD SVG 20010904//EN"
 "http://www.w3.org/TR/2001/REC-SVG-20010904/DTD/svg10.dtd">
<svg version="1.0" xmlns="http://www.w3.org/2000/svg"
 width="900.000000pt" height="900.000000pt" viewBox="0 0 900.000000 900.000000"
 preserveAspectRatio="xMidYMid meet">

<g transform="translate(0.000000,900.000000) scale(0.100000,-0.100000)"
fill="#000000" stroke="none">
<path d="M4574 5341 c-17 -10 -41 -35 -53 -54 -20 -33 -21 -44 -21 -373 0
-318 1 -341 20 -371 42 -70 20 -67 565 -73 l490 -5 33 -23 c66 -48 62 37 62
-1243 0 -1160 0 -1163 21 -1206 14 -29 35 -52 64 -68 l43 -26 409 3 410 3 35
27 c73 56 68 -35 68 1258 0 1161 0 1162 21 1200 44 77 24 74 576 80 l492 5 34
33 c19 18 39 50 46 71 7 25 11 144 11 343 0 295 -1 305 -22 348 -13 25 -38 55
-57 67 l-34 23 -1591 0 c-1543 0 -1592 -1 -1622 -19z"/>
</g>
</svg>
